<?xml version="1.0" standalone="no"?>
<!DOCTYPE svg PUBLIC "-//W3C//DTD SVG 20010904//EN"
 "http://www.w3.org/TR/2001/REC-SVG-20010904/DTD/svg10.dtd">
<svg version="1.0" xmlns="http://www.w3.org/2000/svg"
 width="260.000000pt" height="260.000000pt" viewBox="0 0 260.000000 260.000000"
 preserveAspectRatio="xMidYMid meet">
<metadata>
Created by potrace 1.11, written by Peter Selinger 2001-2013
</metadata>
<g transform="translate(0.000000,260.000000) scale(0.100000,-0.100000)"
fill="#000000" stroke="none">
<path d="M0 1300 l0 -1300 1300 0 1300 0 0 1300 0 1300 -1300 0 -1300 0 0
-1300z m558 463 c-2 -12 -16 -20 -43 -23 -51 -7 -65 -16 -65 -43 0 -20 248
-446 260 -447 5 0 87 135 187 310 63 110 56 166 -23 179 -26 4 -40 12 -42 24
-3 16 16 17 304 15 l307 -3 171 -387 c94 -213 173 -388 176 -388 3 0 82 174
176 388 l170 387 153 3 c142 2 152 1 149 -15 -3 -15 -15 -19 -64 -21 -103 -5
-98 14 -102 -391 -2 -190 -1 -369 3 -397 9 -76 22 -88 97 -94 49 -4 64 -9 66
-22 3 -17 -13 -18 -233 -18 -220 0 -236 1 -233 18 2 13 16 18 60 22 98 9 93
-16 95 423 2 319 1 378 -10 357 -8 -14 -92 -204 -188 -422 -146 -333 -177
-398 -194 -398 -17 0 -50 69 -205 417 l-185 416 -3 -341 c-3 -380 -1 -395 60
-432 18 -11 45 -20 61 -20 20 0 27 -5 27 -20 0 -19 -7 -20 -176 -20 -161 0
-175 1 -172 17 2 11 18 20 44 25 50 10 92 52 105 104 13 56 12 696 -2 731 -15
39 -24 43 -109 43 -125 0 -129 -5 -326 -332 l-124 -206 0 -142 c0 -180 8 -200
88 -200 35 0 42 -3 42 -20 0 -19 -7 -20 -205 -20 -198 0 -205 1 -205 20 0 17
7 20 43 20 67 0 80 15 88 106 4 44 8 110 8 147 l1 68 -151 248 c-183 298 -186
302 -235 310 -26 4 -40 12 -42 24 -3 16 12 17 198 17 186 0 201 -1 198 -17z"/>
</g>
</svg>
